<?xml version="1.0" encoding="us-ascii" standalone="no"?><svg xmlns="http://www.w3.org/2000/svg" xmlns:xlink="http://www.w3.org/1999/xlink" contentStyleType="text/css" height="960px" preserveAspectRatio="none" style="width:1825px;height:960px;background:#FFFFFF;" version="1.1" viewBox="0 0 1825 960" width="1825px" zoomAndPan="magnify"><defs/><g><!--class DSL::FiniteStateMachines::State--><g id="elem_DSL::FiniteStateMachines::State"><rect codeLine="1" fill="#F1F1F1" height="243.5625" id="DSL::FiniteStateMachines::State" rx="2.5" ry="2.5" style="stroke:#181818;stroke-width:0.5;" width="267" x="7" y="227"/><ellipse cx="22" cy="243" fill="#ADD1B2" rx="11" ry="11" style="stroke:#181818;stroke-width:1.0;"/><path d="M24.3438,238.6719 C23.4063,238.2344 22.8125,238.0938 21.9375,238.0938 C19.3125,238.0938 17.3125,240.1719 17.3125,242.8906 L17.3125,244.0156 C17.3125,246.5938 19.4219,248.4844 22.3125,248.4844 C23.5313,248.4844 24.6875,248.1875 25.4375,247.6406 C26.0156,247.2344 26.3438,246.7813 26.3438,246.3906 C26.3438,245.9375 25.9531,245.5469 25.4844,245.5469 C25.2656,245.5469 25.0625,245.625 24.875,245.8125 C24.4219,246.2969 24.4219,246.2969 24.2344,246.3906 C23.8125,246.6563 23.125,246.7813 22.3594,246.7813 C20.3125,246.7813 19.0156,245.6875 19.0156,243.9844 L19.0156,242.8906 C19.0156,241.1094 20.2656,239.7969 22,239.7969 C22.5781,239.7969 23.1875,239.9531 23.6563,240.2031 C24.1406,240.4844 24.3125,240.7031 24.4063,241.1094 C24.4688,241.5156 24.5,241.6406 24.6406,241.7656 C24.7813,241.9063 25.0156,242.0156 25.2344,242.0156 C25.5,242.0156 25.7656,241.875 25.9375,241.6563 C26.0469,241.5 26.0781,241.3125 26.0781,240.8906 L26.0781,239.4688 C26.0781,239.0313 26.0625,238.9063 25.9688,238.75 C25.8125,238.4844 25.5313,238.3438 25.2344,238.3438 C24.9375,238.3438 24.7344,238.4375 24.5156,238.75 L24.3438,238.6719 Z " fill="#000000"/><text fill="#000000" font-family="sans-serif" font-size="14" lengthAdjust="spacing" textLength="235" x="36" y="247.8467">DSL::FiniteStateMachines::State</text><line style="stroke:#181818;stroke-width:0.5;" x1="8" x2="273" y1="259" y2="259"/><text fill="#000000" font-family="sans-serif" font-size="14" lengthAdjust="spacing" textLength="26" x="13" y="275.9951">$!id</text><text fill="#000000" font-family="sans-serif" font-size="14" lengthAdjust="spacing" textLength="102" x="13" y="292.292">$!implicitNext</text><text fill="#000000" font-family="sans-serif" font-size="14" lengthAdjust="spacing" textLength="61" x="13" y="308.5889">&amp;!action</text><text fill="#000000" font-family="sans-serif" font-size="14" lengthAdjust="spacing" textLength="107" x="13" y="324.8857">@!explicitNext</text><line style="stroke:#181818;stroke-width:0.5;" x1="8" x2="273" y1="332.1875" y2="332.1875"/><text fill="#000000" font-family="sans-serif" font-size="14" lengthAdjust="spacing" textLength="68" x="13" y="349.1826">BUILDALL</text><text fill="#000000" font-family="sans-serif" font-size="14" lengthAdjust="spacing" textLength="22" x="13" y="365.4795">Str</text><text fill="#000000" font-family="sans-serif" font-size="14" lengthAdjust="spacing" textLength="45" x="13" y="381.7764">action</text><text fill="#000000" font-family="sans-serif" font-size="14" lengthAdjust="spacing" textLength="88" x="13" y="398.0732">explicitNext</text><text fill="#000000" font-family="sans-serif" font-size="14" lengthAdjust="spacing" textLength="27" x="13" y="414.3701">gist</text><text fill="#000000" font-family="sans-serif" font-size="14" lengthAdjust="spacing" textLength="13" x="13" y="430.667">id</text><text fill="#000000" font-family="sans-serif" font-size="14" lengthAdjust="spacing" textLength="89" x="13" y="446.9639">implicitNext</text><text fill="#000000" font-family="sans-serif" font-size="14" lengthAdjust="spacing" textLength="37" x="13" y="463.2607">to-wl</text></g><!--class DSL::FiniteStateMachines::DataObtainer--><g id="elem_DSL::FiniteStateMachines::DataObtainer"><rect codeLine="17" fill="#F1F1F1" height="683.5781" id="DSL::FiniteStateMachines::DataObtainer" rx="2.5" ry="2.5" style="stroke:#181818;stroke-width:0.5;" width="325" x="309" y="7"/><ellipse cx="324" cy="23" fill="#ADD1B2" rx="11" ry="11" style="stroke:#181818;stroke-width:1.0;"/><path d="M326.3438,18.6719 C325.4063,18.2344 324.8125,18.0938 323.9375,18.0938 C321.3125,18.0938 319.3125,20.1719 319.3125,22.8906 L319.3125,24.0156 C319.3125,26.5938 321.4219,28.4844 324.3125,28.4844 C325.5313,28.4844 326.6875,28.1875 327.4375,27.6406 C328.0156,27.2344 328.3438,26.7813 328.3438,26.3906 C328.3438,25.9375 327.9531,25.5469 327.4844,25.5469 C327.2656,25.5469 327.0625,25.625 326.875,25.8125 C326.4219,26.2969 326.4219,26.2969 326.2344,26.3906 C325.8125,26.6563 325.125,26.7813 324.3594,26.7813 C322.3125,26.7813 321.0156,25.6875 321.0156,23.9844 L321.0156,22.8906 C321.0156,21.1094 322.2656,19.7969 324,19.7969 C324.5781,19.7969 325.1875,19.9531 325.6563,20.2031 C326.1406,20.4844 326.3125,20.7031 326.4063,21.1094 C326.4688,21.5156 326.5,21.6406 326.6406,21.7656 C326.7813,21.9063 327.0156,22.0156 327.2344,22.0156 C327.5,22.0156 327.7656,21.875 327.9375,21.6563 C328.0469,21.5 328.0781,21.3125 328.0781,20.8906 L328.0781,19.4688 C328.0781,19.0313 328.0625,18.9063 327.9688,18.75 C327.8125,18.4844 327.5313,18.3438 327.2344,18.3438 C326.9375,18.3438 326.7344,18.4375 326.5156,18.75 L326.3438,18.6719 Z " fill="#000000"/><text fill="#000000" font-family="sans-serif" font-size="14" lengthAdjust="spacing" textLength="293" x="338" y="27.8467">DSL::FiniteStateMachines::DataObtainer</text><line style="stroke:#181818;stroke-width:0.5;" x1="310" x2="633" y1="39" y2="39"/><text fill="#000000" font-family="sans-serif" font-size="14" lengthAdjust="spacing" textLength="109" x="315" y="55.9951">$!FSMGrammar</text><text fill="#000000" font-family="sans-serif" font-size="14" lengthAdjust="spacing" textLength="108" x="315" y="72.292">$!acquiredData</text><text fill="#000000" font-family="sans-serif" font-size="14" lengthAdjust="spacing" textLength="121" x="315" y="88.5889">$!currentStateID</text><text fill="#000000" font-family="sans-serif" font-size="14" lengthAdjust="spacing" textLength="68" x="315" y="104.8857">$!dataset</text><text fill="#000000" font-family="sans-serif" font-size="14" lengthAdjust="spacing" textLength="170" x="315" y="121.1826">$!datasetColumnNames</text><text fill="#000000" font-family="sans-serif" font-size="14" lengthAdjust="spacing" textLength="94" x="315" y="137.4795">$!initDataset</text><text fill="#000000" font-family="sans-serif" font-size="14" lengthAdjust="spacing" textLength="83" x="315" y="153.7764">$!itemSpec</text><text fill="#000000" font-family="sans-serif" font-size="14" lengthAdjust="spacing" textLength="156" x="315" y="170.0732">$!itemSpecCommand</text><text fill="#000000" font-family="sans-serif" font-size="14" lengthAdjust="spacing" textLength="64" x="315" y="186.3701">%!states</text><text fill="#000000" font-family="sans-serif" font-size="14" lengthAdjust="spacing" textLength="122" x="315" y="202.667">&amp;!ECHOLOGGING</text><text fill="#000000" font-family="sans-serif" font-size="14" lengthAdjust="spacing" textLength="143" x="315" y="218.9639">&amp;!choose-transition</text><text fill="#000000" font-family="sans-serif" font-size="14" lengthAdjust="spacing" textLength="60" x="315" y="235.2607">&amp;!re-say</text><text fill="#000000" font-family="sans-serif" font-size="14" lengthAdjust="spacing" textLength="71" x="315" y="251.5576">&amp;!re-warn</text><text fill="#000000" font-family="sans-serif" font-size="14" lengthAdjust="spacing" textLength="120" x="315" y="267.8545">@!grammar-args</text><line style="stroke:#181818;stroke-width:0.5;" x1="310" x2="633" y1="275.1563" y2="275.1563"/><text fill="#000000" font-family="sans-serif" font-size="14" lengthAdjust="spacing" textLength="68" x="315" y="292.1514">BUILDALL</text><text fill="#000000" font-family="sans-serif" font-size="14" lengthAdjust="spacing" textLength="106" x="315" y="308.4482">ECHOLOGGING</text><text fill="#000000" font-family="sans-serif" font-size="14" lengthAdjust="spacing" textLength="96" x="315" y="324.7451">FSMGrammar</text><text fill="#000000" font-family="sans-serif" font-size="14" lengthAdjust="spacing" textLength="95" x="315" y="341.042">acquiredData</text><text fill="#000000" font-family="sans-serif" font-size="14" lengthAdjust="spacing" textLength="70" x="315" y="357.3389">add-state</text><text fill="#000000" font-family="sans-serif" font-size="14" lengthAdjust="spacing" textLength="102" x="315" y="373.6357">add-transition</text><text fill="#000000" font-family="sans-serif" font-size="14" lengthAdjust="spacing" textLength="241" x="315" y="389.9326">apply-query-retrieve-act-pattern</text><text fill="#000000" font-family="sans-serif" font-size="14" lengthAdjust="spacing" textLength="127" x="315" y="406.2295">choose-transition</text><text fill="#000000" font-family="sans-serif" font-size="14" lengthAdjust="spacing" textLength="108" x="315" y="422.5264">currentStateID</text><text fill="#000000" font-family="sans-serif" font-size="14" lengthAdjust="spacing" textLength="55" x="315" y="438.8232">dataset</text><text fill="#000000" font-family="sans-serif" font-size="14" lengthAdjust="spacing" textLength="157" x="315" y="455.1201">datasetColumnNames</text><text fill="#000000" font-family="sans-serif" font-size="14" lengthAdjust="spacing" textLength="101" x="315" y="471.417">grammar-args</text><text fill="#000000" font-family="sans-serif" font-size="14" lengthAdjust="spacing" textLength="85" x="315" y="487.7139">init-dataset</text><text fill="#000000" font-family="sans-serif" font-size="14" lengthAdjust="spacing" textLength="81" x="315" y="504.0107">initDataset</text><text fill="#000000" font-family="sans-serif" font-size="14" lengthAdjust="spacing" textLength="148" x="315" y="520.3076">is-metadata-dataset</text><text fill="#000000" font-family="sans-serif" font-size="14" lengthAdjust="spacing" textLength="119" x="315" y="536.6045">is-metadata-row</text><text fill="#000000" font-family="sans-serif" font-size="14" lengthAdjust="spacing" textLength="70" x="315" y="552.9014">itemSpec</text><text fill="#000000" font-family="sans-serif" font-size="14" lengthAdjust="spacing" textLength="143" x="315" y="569.1982">itemSpecCommand</text><text fill="#000000" font-family="sans-serif" font-size="14" lengthAdjust="spacing" textLength="107" x="315" y="585.4951">make-machine</text><text fill="#000000" font-family="sans-serif" font-size="14" lengthAdjust="spacing" textLength="44" x="315" y="601.792">re-say</text><text fill="#000000" font-family="sans-serif" font-size="14" lengthAdjust="spacing" textLength="55" x="315" y="618.0889">re-warn</text><text fill="#000000" font-family="sans-serif" font-size="14" lengthAdjust="spacing" textLength="23" x="315" y="634.3857">run</text><text fill="#000000" font-family="sans-serif" font-size="14" lengthAdjust="spacing" textLength="45" x="315" y="650.6826">states</text><text fill="#000000" font-family="sans-serif" font-size="14" lengthAdjust="spacing" textLength="37" x="315" y="666.9795">to-wl</text><text fill="#000000" font-family="sans-serif" font-size="14" lengthAdjust="spacing" textLength="122" x="315" y="683.2764">transition-target</text></g><!--class DSL::FiniteStateMachines--><g id="elem_DSL::FiniteStateMachines"><rect fill="#F1F1F1" height="48" id="DSL::FiniteStateMachines" rx="2.5" ry="2.5" style="stroke:#181818;stroke-width:0.5;" width="217" x="363" y="828.5"/><ellipse cx="378" cy="844.5" fill="#ADD1B2" rx="11" ry="11" style="stroke:#181818;stroke-width:1.0;"/><path d="M380.3438,840.1719 C379.4063,839.7344 378.8125,839.5938 377.9375,839.5938 C375.3125,839.5938 373.3125,841.6719 373.3125,844.3906 L373.3125,845.5156 C373.3125,848.0938 375.4219,849.9844 378.3125,849.9844 C379.5313,849.9844 380.6875,849.6875 381.4375,849.1406 C382.0156,848.7344 382.3438,848.2813 382.3438,847.8906 C382.3438,847.4375 381.9531,847.0469 381.4844,847.0469 C381.2656,847.0469 381.0625,847.125 380.875,847.3125 C380.4219,847.7969 380.4219,847.7969 380.2344,847.8906 C379.8125,848.1563 379.125,848.2813 378.3594,848.2813 C376.3125,848.2813 375.0156,847.1875 375.0156,845.4844 L375.0156,844.3906 C375.0156,842.6094 376.2656,841.2969 378,841.2969 C378.5781,841.2969 379.1875,841.4531 379.6563,841.7031 C380.1406,841.9844 380.3125,842.2031 380.4063,842.6094 C380.4688,843.0156 380.5,843.1406 380.6406,843.2656 C380.7813,843.4063 381.0156,843.5156 381.2344,843.5156 C381.5,843.5156 381.7656,843.375 381.9375,843.1563 C382.0469,843 382.0781,842.8125 382.0781,842.3906 L382.0781,840.9688 C382.0781,840.5313 382.0625,840.4063 381.9688,840.25 C381.8125,839.9844 381.5313,839.8438 381.2344,839.8438 C380.9375,839.8438 380.7344,839.9375 380.5156,840.25 L380.3438,840.1719 Z " fill="#000000"/><text fill="#000000" font-family="sans-serif" font-size="14" lengthAdjust="spacing" textLength="185" x="392" y="849.3467">DSL::FiniteStateMachines</text><line style="stroke:#181818;stroke-width:0.5;" x1="364" x2="579" y1="860.5" y2="860.5"/><line style="stroke:#181818;stroke-width:0.5;" x1="364" x2="579" y1="868.5" y2="868.5"/></g><!--class DSL::FiniteStateMachines::FSMish--><g id="elem_DSL::FiniteStateMachines::FSMish"><rect codeLine="62" fill="#F1F1F1" height="202.9375" id="DSL::FiniteStateMachines::FSMish" rx="2.5" ry="2.5" style="stroke:#181818;stroke-width:0.5;" width="276" x="924.5" y="751"/><ellipse cx="939.5" cy="771.1328" fill="#ADD1B2" rx="11" ry="11" style="stroke:#181818;stroke-width:1.0;"/><path d="M941.8438,766.8047 C940.9063,766.3672 940.3125,766.2266 939.4375,766.2266 C936.8125,766.2266 934.8125,768.3047 934.8125,771.0234 L934.8125,772.1484 C934.8125,774.7266 936.9219,776.6172 939.8125,776.6172 C941.0313,776.6172 942.1875,776.3203 942.9375,775.7734 C943.5156,775.3672 943.8438,774.9141 943.8438,774.5234 C943.8438,774.0703 943.4531,773.6797 942.9844,773.6797 C942.7656,773.6797 942.5625,773.7578 942.375,773.9453 C941.9219,774.4297 941.9219,774.4297 941.7344,774.5234 C941.3125,774.7891 940.625,774.9141 939.8594,774.9141 C937.8125,774.9141 936.5156,773.8203 936.5156,772.1172 L936.5156,771.0234 C936.5156,769.2422 937.7656,767.9297 939.5,767.9297 C940.0781,767.9297 940.6875,768.0859 941.1563,768.3359 C941.6406,768.6172 941.8125,768.8359 941.9063,769.2422 C941.9688,769.6484 942,769.7734 942.1406,769.8984 C942.2813,770.0391 942.5156,770.1484 942.7344,770.1484 C943,770.1484 943.2656,770.0078 943.4375,769.7891 C943.5469,769.6328 943.5781,769.4453 943.5781,769.0234 L943.5781,767.6016 C943.5781,767.1641 943.5625,767.0391 943.4688,766.8828 C943.3125,766.6172 943.0313,766.4766 942.7344,766.4766 C942.4375,766.4766 942.2344,766.5703 942.0156,766.8828 L941.8438,766.8047 Z " fill="#000000"/><text fill="#000000" font-family="sans-serif" font-size="12" font-style="italic" lengthAdjust="spacing" textLength="36" x="1057.5" y="767.1387">&#171;role&#187;</text><text fill="#000000" font-family="sans-serif" font-size="14" lengthAdjust="spacing" textLength="244" x="953.5" y="782.9639">DSL::FiniteStateMachines::FSMish</text><line style="stroke:#181818;stroke-width:0.5;" x1="925.5" x2="1199.5" y1="791.2656" y2="791.2656"/><text fill="#000000" font-family="sans-serif" font-size="14" lengthAdjust="spacing" textLength="121" x="930.5" y="808.2607">$!currentStateID</text><text fill="#000000" font-family="sans-serif" font-size="14" lengthAdjust="spacing" textLength="64" x="930.5" y="824.5576">%!states</text><text fill="#000000" font-family="sans-serif" font-size="14" lengthAdjust="spacing" textLength="122" x="930.5" y="840.8545">&amp;!ECHOLOGGING</text><text fill="#000000" font-family="sans-serif" font-size="14" lengthAdjust="spacing" textLength="143" x="930.5" y="857.1514">&amp;!choose-transition</text><text fill="#000000" font-family="sans-serif" font-size="14" lengthAdjust="spacing" textLength="60" x="930.5" y="873.4482">&amp;!re-say</text><text fill="#000000" font-family="sans-serif" font-size="14" lengthAdjust="spacing" textLength="71" x="930.5" y="889.7451">&amp;!re-warn</text><line style="stroke:#181818;stroke-width:0.5;" x1="925.5" x2="1199.5" y1="897.0469" y2="897.0469"/><text fill="#000000" font-family="sans-serif" font-size="14" lengthAdjust="spacing" textLength="70" x="930.5" y="914.042">add-state</text><text fill="#000000" font-family="sans-serif" font-size="14" lengthAdjust="spacing" textLength="23" x="930.5" y="930.3389">run</text><text fill="#000000" font-family="sans-serif" font-size="14" lengthAdjust="spacing" textLength="37" x="930.5" y="946.6357">to-wl</text></g><!--class DSL::FiniteStateMachines::AddressBookCaller--><g id="elem_DSL::FiniteStateMachines::AddressBookCaller"><rect codeLine="75" fill="#F1F1F1" height="683.5781" id="DSL::FiniteStateMachines::AddressBookCaller" rx="2.5" ry="2.5" style="stroke:#181818;stroke-width:0.5;" width="362" x="669.5" y="7"/><ellipse cx="684.5" cy="23" fill="#ADD1B2" rx="11" ry="11" style="stroke:#181818;stroke-width:1.0;"/><path d="M686.8438,18.6719 C685.9063,18.2344 685.3125,18.0938 684.4375,18.0938 C681.8125,18.0938 679.8125,20.1719 679.8125,22.8906 L679.8125,24.0156 C679.8125,26.5938 681.9219,28.4844 684.8125,28.4844 C686.0313,28.4844 687.1875,28.1875 687.9375,27.6406 C688.5156,27.2344 688.8438,26.7813 688.8438,26.3906 C688.8438,25.9375 688.4531,25.5469 687.9844,25.5469 C687.7656,25.5469 687.5625,25.625 687.375,25.8125 C686.9219,26.2969 686.9219,26.2969 686.7344,26.3906 C686.3125,26.6563 685.625,26.7813 684.8594,26.7813 C682.8125,26.7813 681.5156,25.6875 681.5156,23.9844 L681.5156,22.8906 C681.5156,21.1094 682.7656,19.7969 684.5,19.7969 C685.0781,19.7969 685.6875,19.9531 686.1563,20.2031 C686.6406,20.4844 686.8125,20.7031 686.9063,21.1094 C686.9688,21.5156 687,21.6406 687.1406,21.7656 C687.2813,21.9063 687.5156,22.0156 687.7344,22.0156 C688,22.0156 688.2656,21.875 688.4375,21.6563 C688.5469,21.5 688.5781,21.3125 688.5781,20.8906 L688.5781,19.4688 C688.5781,19.0313 688.5625,18.9063 688.4688,18.75 C688.3125,18.4844 688.0313,18.3438 687.7344,18.3438 C687.4375,18.3438 687.2344,18.4375 687.0156,18.75 L686.8438,18.6719 Z " fill="#000000"/><text fill="#000000" font-family="sans-serif" font-size="14" lengthAdjust="spacing" textLength="330" x="698.5" y="27.8467">DSL::FiniteStateMachines::AddressBookCaller</text><line style="stroke:#181818;stroke-width:0.5;" x1="670.5" x2="1030.5" y1="39" y2="39"/><text fill="#000000" font-family="sans-serif" font-size="14" lengthAdjust="spacing" textLength="109" x="675.5" y="55.9951">$!FSMGrammar</text><text fill="#000000" font-family="sans-serif" font-size="14" lengthAdjust="spacing" textLength="108" x="675.5" y="72.292">$!acquiredData</text><text fill="#000000" font-family="sans-serif" font-size="14" lengthAdjust="spacing" textLength="121" x="675.5" y="88.5889">$!currentStateID</text><text fill="#000000" font-family="sans-serif" font-size="14" lengthAdjust="spacing" textLength="68" x="675.5" y="104.8857">$!dataset</text><text fill="#000000" font-family="sans-serif" font-size="14" lengthAdjust="spacing" textLength="170" x="675.5" y="121.1826">$!datasetColumnNames</text><text fill="#000000" font-family="sans-serif" font-size="14" lengthAdjust="spacing" textLength="94" x="675.5" y="137.4795">$!initDataset</text><text fill="#000000" font-family="sans-serif" font-size="14" lengthAdjust="spacing" textLength="83" x="675.5" y="153.7764">$!itemSpec</text><text fill="#000000" font-family="sans-serif" font-size="14" lengthAdjust="spacing" textLength="156" x="675.5" y="170.0732">$!itemSpecCommand</text><text fill="#000000" font-family="sans-serif" font-size="14" lengthAdjust="spacing" textLength="64" x="675.5" y="186.3701">%!states</text><text fill="#000000" font-family="sans-serif" font-size="14" lengthAdjust="spacing" textLength="122" x="675.5" y="202.667">&amp;!ECHOLOGGING</text><text fill="#000000" font-family="sans-serif" font-size="14" lengthAdjust="spacing" textLength="143" x="675.5" y="218.9639">&amp;!choose-transition</text><text fill="#000000" font-family="sans-serif" font-size="14" lengthAdjust="spacing" textLength="60" x="675.5" y="235.2607">&amp;!re-say</text><text fill="#000000" font-family="sans-serif" font-size="14" lengthAdjust="spacing" textLength="71" x="675.5" y="251.5576">&amp;!re-warn</text><text fill="#000000" font-family="sans-serif" font-size="14" lengthAdjust="spacing" textLength="120" x="675.5" y="267.8545">@!grammar-args</text><line style="stroke:#181818;stroke-width:0.5;" x1="670.5" x2="1030.5" y1="275.1563" y2="275.1563"/><text fill="#000000" font-family="sans-serif" font-size="14" lengthAdjust="spacing" textLength="68" x="675.5" y="292.1514">BUILDALL</text><text fill="#000000" font-family="sans-serif" font-size="14" lengthAdjust="spacing" textLength="106" x="675.5" y="308.4482">ECHOLOGGING</text><text fill="#000000" font-family="sans-serif" font-size="14" lengthAdjust="spacing" textLength="96" x="675.5" y="324.7451">FSMGrammar</text><text fill="#000000" font-family="sans-serif" font-size="14" lengthAdjust="spacing" textLength="95" x="675.5" y="341.042">acquiredData</text><text fill="#000000" font-family="sans-serif" font-size="14" lengthAdjust="spacing" textLength="70" x="675.5" y="357.3389">add-state</text><text fill="#000000" font-family="sans-serif" font-size="14" lengthAdjust="spacing" textLength="102" x="675.5" y="373.6357">add-transition</text><text fill="#000000" font-family="sans-serif" font-size="14" lengthAdjust="spacing" textLength="241" x="675.5" y="389.9326">apply-query-retrieve-act-pattern</text><text fill="#000000" font-family="sans-serif" font-size="14" lengthAdjust="spacing" textLength="127" x="675.5" y="406.2295">choose-transition</text><text fill="#000000" font-family="sans-serif" font-size="14" lengthAdjust="spacing" textLength="108" x="675.5" y="422.5264">currentStateID</text><text fill="#000000" font-family="sans-serif" font-size="14" lengthAdjust="spacing" textLength="55" x="675.5" y="438.8232">dataset</text><text fill="#000000" font-family="sans-serif" font-size="14" lengthAdjust="spacing" textLength="157" x="675.5" y="455.1201">datasetColumnNames</text><text fill="#000000" font-family="sans-serif" font-size="14" lengthAdjust="spacing" textLength="101" x="675.5" y="471.417">grammar-args</text><text fill="#000000" font-family="sans-serif" font-size="14" lengthAdjust="spacing" textLength="85" x="675.5" y="487.7139">init-dataset</text><text fill="#000000" font-family="sans-serif" font-size="14" lengthAdjust="spacing" textLength="81" x="675.5" y="504.0107">initDataset</text><text fill="#000000" font-family="sans-serif" font-size="14" lengthAdjust="spacing" textLength="148" x="675.5" y="520.3076">is-metadata-dataset</text><text fill="#000000" font-family="sans-serif" font-size="14" lengthAdjust="spacing" textLength="119" x="675.5" y="536.6045">is-metadata-row</text><text fill="#000000" font-family="sans-serif" font-size="14" lengthAdjust="spacing" textLength="70" x="675.5" y="552.9014">itemSpec</text><text fill="#000000" font-family="sans-serif" font-size="14" lengthAdjust="spacing" textLength="143" x="675.5" y="569.1982">itemSpecCommand</text><text fill="#000000" font-family="sans-serif" font-size="14" lengthAdjust="spacing" textLength="107" x="675.5" y="585.4951">make-machine</text><text fill="#000000" font-family="sans-serif" font-size="14" lengthAdjust="spacing" textLength="44" x="675.5" y="601.792">re-say</text><text fill="#000000" font-family="sans-serif" font-size="14" lengthAdjust="spacing" textLength="55" x="675.5" y="618.0889">re-warn</text><text fill="#000000" font-family="sans-serif" font-size="14" lengthAdjust="spacing" textLength="23" x="675.5" y="634.3857">run</text><text fill="#000000" font-family="sans-serif" font-size="14" lengthAdjust="spacing" textLength="45" x="675.5" y="650.6826">states</text><text fill="#000000" font-family="sans-serif" font-size="14" lengthAdjust="spacing" textLength="37" x="675.5" y="666.9795">to-wl</text><text fill="#000000" font-family="sans-serif" font-size="14" lengthAdjust="spacing" textLength="122" x="675.5" y="683.2764">transition-target</text></g><!--class DSL::FiniteStateMachines::QueryRetrieveActFSMRole--><g id="elem_DSL::FiniteStateMachines::QueryRetrieveActFSMRole"><rect codeLine="120" fill="#F1F1F1" height="251.8281" id="DSL::FiniteStateMachines::QueryRetrieveActFSMRole" rx="2.5" ry="2.5" style="stroke:#181818;stroke-width:0.5;" width="417" x="1067" y="223"/><ellipse cx="1082" cy="243.1328" fill="#ADD1B2" rx="11" ry="11" style="stroke:#181818;stroke-width:1.0;"/><path d="M1084.3438,238.8047 C1083.4063,238.3672 1082.8125,238.2266 1081.9375,238.2266 C1079.3125,238.2266 1077.3125,240.3047 1077.3125,243.0234 L1077.3125,244.1484 C1077.3125,246.7266 1079.4219,248.6172 1082.3125,248.6172 C1083.5313,248.6172 1084.6875,248.3203 1085.4375,247.7734 C1086.0156,247.3672 1086.3438,246.9141 1086.3438,246.5234 C1086.3438,246.0703 1085.9531,245.6797 1085.4844,245.6797 C1085.2656,245.6797 1085.0625,245.7578 1084.875,245.9453 C1084.4219,246.4297 1084.4219,246.4297 1084.2344,246.5234 C1083.8125,246.7891 1083.125,246.9141 1082.3594,246.9141 C1080.3125,246.9141 1079.0156,245.8203 1079.0156,244.1172 L1079.0156,243.0234 C1079.0156,241.2422 1080.2656,239.9297 1082,239.9297 C1082.5781,239.9297 1083.1875,240.0859 1083.6563,240.3359 C1084.1406,240.6172 1084.3125,240.8359 1084.4063,241.2422 C1084.4688,241.6484 1084.5,241.7734 1084.6406,241.8984 C1084.7813,242.0391 1085.0156,242.1484 1085.2344,242.1484 C1085.5,242.1484 1085.7656,242.0078 1085.9375,241.7891 C1086.0469,241.6328 1086.0781,241.4453 1086.0781,241.0234 L1086.0781,239.6016 C1086.0781,239.1641 1086.0625,239.0391 1085.9688,238.8828 C1085.8125,238.6172 1085.5313,238.4766 1085.2344,238.4766 C1084.9375,238.4766 1084.7344,238.5703 1084.5156,238.8828 L1084.3438,238.8047 Z " fill="#000000"/><text fill="#000000" font-family="sans-serif" font-size="12" font-style="italic" lengthAdjust="spacing" textLength="36" x="1270.5" y="239.1387">&#171;role&#187;</text><text fill="#000000" font-family="sans-serif" font-size="14" lengthAdjust="spacing" textLength="385" x="1096" y="254.9639">DSL::FiniteStateMachines::QueryRetrieveActFSMRole</text><line style="stroke:#181818;stroke-width:0.5;" x1="1068" x2="1483" y1="263.2656" y2="263.2656"/><text fill="#000000" font-family="sans-serif" font-size="14" lengthAdjust="spacing" textLength="109" x="1073" y="280.2607">$!FSMGrammar</text><text fill="#000000" font-family="sans-serif" font-size="14" lengthAdjust="spacing" textLength="108" x="1073" y="296.5576">$!acquiredData</text><text fill="#000000" font-family="sans-serif" font-size="14" lengthAdjust="spacing" textLength="68" x="1073" y="312.8545">$!dataset</text><text fill="#000000" font-family="sans-serif" font-size="14" lengthAdjust="spacing" textLength="170" x="1073" y="329.1514">$!datasetColumnNames</text><text fill="#000000" font-family="sans-serif" font-size="14" lengthAdjust="spacing" textLength="94" x="1073" y="345.4482">$!initDataset</text><text fill="#000000" font-family="sans-serif" font-size="14" lengthAdjust="spacing" textLength="83" x="1073" y="361.7451">$!itemSpec</text><text fill="#000000" font-family="sans-serif" font-size="14" lengthAdjust="spacing" textLength="156" x="1073" y="378.042">$!itemSpecCommand</text><text fill="#000000" font-family="sans-serif" font-size="14" lengthAdjust="spacing" textLength="120" x="1073" y="394.3389">@!grammar-args</text><line style="stroke:#181818;stroke-width:0.5;" x1="1068" x2="1483" y1="401.6406" y2="401.6406"/><text fill="#000000" font-family="sans-serif" font-size="14" lengthAdjust="spacing" textLength="241" x="1073" y="418.6357">apply-query-retrieve-act-pattern</text><text fill="#000000" font-family="sans-serif" font-size="14" lengthAdjust="spacing" textLength="85" x="1073" y="434.9326">init-dataset</text><text fill="#000000" font-family="sans-serif" font-size="14" lengthAdjust="spacing" textLength="148" x="1073" y="451.2295">is-metadata-dataset</text><text fill="#000000" font-family="sans-serif" font-size="14" lengthAdjust="spacing" textLength="119" x="1073" y="467.5264">is-metadata-row</text></g><!--class DSL::FiniteStateMachines::Transition--><g id="elem_DSL::FiniteStateMachines::Transition"><rect codeLine="137" fill="#F1F1F1" height="162.0781" id="DSL::FiniteStateMachines::Transition" rx="2.5" ry="2.5" style="stroke:#181818;stroke-width:0.5;" width="299" x="1519" y="268"/><ellipse cx="1534" cy="284" fill="#ADD1B2" rx="11" ry="11" style="stroke:#181818;stroke-width:1.0;"/><path d="M1536.3438,279.6719 C1535.4063,279.2344 1534.8125,279.0938 1533.9375,279.0938 C1531.3125,279.0938 1529.3125,281.1719 1529.3125,283.8906 L1529.3125,285.0156 C1529.3125,287.5938 1531.4219,289.4844 1534.3125,289.4844 C1535.5313,289.4844 1536.6875,289.1875 1537.4375,288.6406 C1538.0156,288.2344 1538.3438,287.7813 1538.3438,287.3906 C1538.3438,286.9375 1537.9531,286.5469 1537.4844,286.5469 C1537.2656,286.5469 1537.0625,286.625 1536.875,286.8125 C1536.4219,287.2969 1536.4219,287.2969 1536.2344,287.3906 C1535.8125,287.6563 1535.125,287.7813 1534.3594,287.7813 C1532.3125,287.7813 1531.0156,286.6875 1531.0156,284.9844 L1531.0156,283.8906 C1531.0156,282.1094 1532.2656,280.7969 1534,280.7969 C1534.5781,280.7969 1535.1875,280.9531 1535.6563,281.2031 C1536.1406,281.4844 1536.3125,281.7031 1536.4063,282.1094 C1536.4688,282.5156 1536.5,282.6406 1536.6406,282.7656 C1536.7813,282.9063 1537.0156,283.0156 1537.2344,283.0156 C1537.5,283.0156 1537.7656,282.875 1537.9375,282.6563 C1538.0469,282.5 1538.0781,282.3125 1538.0781,281.8906 L1538.0781,280.4688 C1538.0781,280.0313 1538.0625,279.9063 1537.9688,279.75 C1537.8125,279.4844 1537.5313,279.3438 1537.2344,279.3438 C1536.9375,279.3438 1536.7344,279.4375 1536.5156,279.75 L1536.3438,279.6719 Z " fill="#000000"/><text fill="#000000" font-family="sans-serif" font-size="14" lengthAdjust="spacing" textLength="267" x="1548" y="288.8467">DSL::FiniteStateMachines::Transition</text><line style="stroke:#181818;stroke-width:0.5;" x1="1520" x2="1817" y1="300" y2="300"/><text fill="#000000" font-family="sans-serif" font-size="14" lengthAdjust="spacing" textLength="26" x="1525" y="316.9951">$!id</text><text fill="#000000" font-family="sans-serif" font-size="14" lengthAdjust="spacing" textLength="29" x="1525" y="333.292">$!to</text><line style="stroke:#181818;stroke-width:0.5;" x1="1520" x2="1817" y1="340.5938" y2="340.5938"/><text fill="#000000" font-family="sans-serif" font-size="14" lengthAdjust="spacing" textLength="68" x="1525" y="357.5889">BUILDALL</text><text fill="#000000" font-family="sans-serif" font-size="14" lengthAdjust="spacing" textLength="22" x="1525" y="373.8857">Str</text><text fill="#000000" font-family="sans-serif" font-size="14" lengthAdjust="spacing" textLength="27" x="1525" y="390.1826">gist</text><text fill="#000000" font-family="sans-serif" font-size="14" lengthAdjust="spacing" textLength="13" x="1525" y="406.4795">id</text><text fill="#000000" font-family="sans-serif" font-size="14" lengthAdjust="spacing" textLength="16" x="1525" y="422.7764">to</text></g><!--link DSL::FiniteStateMachines::DataObtainer to DSL::FiniteStateMachines--><g id="link_DSL::FiniteStateMachines::DataObtainer_DSL::FiniteStateMachines"><path codeLine="58" d="M459.516,691.098 C460.298,735.324 461.678,775.221 463.658,804.162 " fill="none" id="DSL::FiniteStateMachines::DataObtainer-to-DSL::FiniteStateMachines" style="stroke:#181818;stroke-width:1.0;"/><polygon fill="none" points="470.665,803.965,465.33,824.472,456.712,805.114,470.665,803.965" style="stroke:#181818;stroke-width:1.0;"/></g><!--link DSL::FiniteStateMachines::DataObtainer to DSL::FiniteStateMachines--><g id="link_DSL::FiniteStateMachines::DataObtainer_DSL::FiniteStateMachines"><path codeLine="59" d="M484.189,691.098 C483.361,735.324 481.899,775.221 479.804,804.162 " fill="none" id="DSL::FiniteStateMachines::DataObtainer-to-DSL::FiniteStateMachines-1" style="stroke:#181818;stroke-width:1.0;"/><polygon fill="none" points="486.744,805.156,478.033,824.472,472.797,803.94,486.744,805.156" style="stroke:#181818;stroke-width:1.0;"/></g><!--link DSL::FiniteStateMachines::AddressBookCaller to DSL::FiniteStateMachines::FSMish--><g id="link_DSL::FiniteStateMachines::AddressBookCaller_DSL::FiniteStateMachines::FSMish"><path codeLine="116" d="M994.693,691.098 C1000.713,705.34 1006.544,719.133 1012.09,732.255 " fill="none" id="DSL::FiniteStateMachines::AddressBookCaller-to-DSL::FiniteStateMachines::FSMish" style="stroke:#181818;stroke-width:1.0;"/><polygon fill="none" points="1018.67,729.829,1020.01,750.976,1005.77,735.28,1018.67,729.829" style="stroke:#181818;stroke-width:1.0;"/></g><!--link DSL::FiniteStateMachines::AddressBookCaller to DSL::FiniteStateMachines--><g id="link_DSL::FiniteStateMachines::AddressBookCaller_DSL::FiniteStateMachines"><path codeLine="117" d="M669.188,668.554 C663.365,676.207 657.466,683.704 651.5,691 C613.784,737.125 562.378,781.566 524.157,811.941 " fill="none" id="DSL::FiniteStateMachines::AddressBookCaller-to-DSL::FiniteStateMachines" style="stroke:#181818;stroke-width:1.0;"/><polygon fill="none" points="528.469,817.456,508.402,824.262,519.844,806.427,528.469,817.456" style="stroke:#181818;stroke-width:1.0;"/></g><!--link DSL::FiniteStateMachines::QueryRetrieveActFSMRole to DSL::FiniteStateMachines::FSMish--><g id="link_DSL::FiniteStateMachines::QueryRetrieveActFSMRole_DSL::FiniteStateMachines::FSMish"><path codeLine="134" d="M1222.3,475.256 C1188.89,553.92 1146.05,654.785 1113.14,732.275 " fill="none" id="DSL::FiniteStateMachines::QueryRetrieveActFSMRole-to-DSL::FiniteStateMachines::FSMish" style="stroke:#181818;stroke-width:1.0;"/><polygon fill="none" points="1119.47,735.269,1105.21,750.941,1106.59,729.796,1119.47,735.269" style="stroke:#181818;stroke-width:1.0;"/></g><!--SRC=[xLVXRjem4FwVfqYahV_y0gX2ewHbI2bepVO0ddC3gt6SsfTHjF7kSs04sqs0R5KdJVn0uhxpNSvtttsIMKwr3kCq6GpkUC4HKgG8zvGjUG5wCDYQOVWZCBzl7F9i4xwBUEQQeimvupY3PxGSLn5bo6LXGHyYU7RF2i2bD9wRBzCa7YM9ZQMeRFEGROzq9LjmxTYxUXjBj4UX9Aiys0H1m4uq9QP8vr-H6alvlRbBxoUA2a6L0rFsL745MHtgE5Yb51Iu_S8qTboPEQi1sx2np2jHpAW0xOx2L1ktX9axYBG4rWgEfIcti6VwFj9rFTgPvktuupoPJoRJsSJ1sL9A3GGLBJJt1duLAI2QhdreHPNBYyMkPuIgXJx52w-GFUns_i0Qj_4DdcLaUqaVTE_HUCeoNvEd2jIQA435uJiGmqXIKaHGpjdMXZJE5_FUUwnnUv0txORc7JshIK1QiddaQ61Dp5zQ1xH6MMubLuxBOfMFMQJQkmHz129sMsJZ1ufOo9uX3LGvve6VxlhQGDD_WgP5vbQRuCoT9kJdyCZ-6wPnlNobP9zgJZtyfjI8eKd-87CuGuPsPOJNrygS7muz8UeKbZTRxgEhvitpVF4TPPa2hM-aV1pJFByey4M1BmhyFoZmoyN-MndkdV7FjRWZiakS-shKlnEYRc7eiv2T2z6F-SVeqpM1yqXqUiAV6pAVU0wXxFcmEVvSCUaslm00]--></g></svg>