<?xml version="1.0" encoding="us-ascii" standalone="no"?><svg xmlns="http://www.w3.org/2000/svg" xmlns:xlink="http://www.w3.org/1999/xlink" contentStyleType="text/css" height="960px" preserveAspectRatio="none" style="width:1825px;height:960px;background:#FFFFFF;" version="1.1" viewBox="0 0 1825 960" width="1825px" zoomAndPan="magnify"><defs/><g><!--class DSL::FiniteStateMachines::State--><g id="elem_DSL::FiniteStateMachines::State"><rect codeLine="1" fill="#F1F1F1" height="243.5625" id="DSL::FiniteStateMachines::State" rx="2.5" ry="2.5" style="stroke:#181818;stroke-width:0.5;" width="267" x="7" y="227"/><ellipse cx="22" cy="243" fill="#ADD1B2" rx="11" ry="11" style="stroke:#181818;stroke-width:1.0;"/><path d="M24.3438,238.6719 C23.4063,238.2344 22.8125,238.0938 21.9375,238.0938 C19.3125,238.0938 17.3125,240.1719 17.3125,242.8906 L17.3125,244.0156 C17.3125,246.5938 19.4219,248.4844 22.3125,248.4844 C23.5313,248.4844 24.6875,248.1875 25.4375,247.6406 C26.0156,247.2344 26.3438,246.7813 26.3438,246.3906 C26.3438,245.9375 25.9531,245.5469 25.4844,245.5469 C25.2656,245.5469 25.0625,245.625 24.875,245.8125 C24.4219,246.2969 24.4219,246.2969 24.2344,246.3906 C23.8125,246.6563 23.125,246.7813 22.3594,246.7813 C20.3125,246.7813 19.0156,245.6875 19.0156,243.9844 L19.0156,242.8906 C19.0156,241.1094 20.2656,239.7969 22,239.7969 C22.5781,239.7969 23.1875,239.9531 23.6563,240.2031 C24.1406,240.4844 24.3125,240.7031 24.4063,241.1094 C24.4688,241.5156 24.5,241.6406 24.6406,241.7656 C24.7813,241.9063 25.0156,242.0156 25.2344,242.0156 C25.5,242.0156 25.7656,241.875 25.9375,241.6563 C26.0469,241.5 26.0781,241.3125 26.0781,240.8906 L26.0781,239.4688 C26.0781,239.0313 26.0625,238.9063 25.9688,238.75 C25.8125,238.4844 25.5313,238.3438 25.2344,238.3438 C24.9375,238.3438 24.7344,238.4375 24.5156,238.75 L24.3438,238.6719 Z " fill="#000000"/><text fill="#000000" font-family="sans-serif" font-size="14" lengthAdjust="spacing" textLength="235" x="36" y="247.8467">DSL::FiniteStateMachines::State</text><line style="stroke:#181818;stroke-width:0.5;" x1="8" x2="273" y1="259" y2="259"/><text fill="#000000" font-family="sans-serif" font-size="14" lengthAdjust="spacing" textLength="26" x="13" y="275.9951">$!id</text><text fill="#000000" font-family="sans-serif" font-size="14" lengthAdjust="spacing" textLength="102" x="13" y="292.292">$!implicitNext</text><text fill="#000000" font-family="sans-serif" font-size="14" lengthAdjust="spacing" textLength="61" x="13" y="308.5889">&amp;!action</text><text fill="#000000" font-family="sans-serif" font-size="14" lengthAdjust="spacing" textLength="107" x="13" y="324.8857">@!explicitNext</text><line style="stroke:#181818;stroke-width:0.5;" x1="8" x2="273" y1="332.1875" y2="332.1875"/><text fill="#000000" font-family="sans-serif" font-size="14" lengthAdjust="spacing" textLength="68" x="13" y="349.1826">BUILDALL</text><text fill="#000000" font-family="sans-serif" font-size="14" lengthAdjust="spacing" textLength="22" x="13" y="365.4795">Str</text><text fill="#000000" font-family="sans-serif" font-size="14" lengthAdjust="spacing" textLength="45" x="13" y="381.7764">action</text><text fill="#000000" font-family="sans-serif" font-size="14" lengthAdjust="spacing" textLength="88" x="13" y="398.0732">explicitNext</text><text fill="#000000" font-family="sans-serif" font-size="14" lengthAdjust="spacing" textLength="27" x="13" y="414.3701">gist</text><text fill="#000000" font-family="sans-serif" font-size="14" lengthAdjust="spacing" textLength="13" x="13" y="430.667">id</text><text fill="#000000" font-family="sans-serif" font-size="14" lengthAdjust="spacing" textLength="89" x="13" y="446.9639">implicitNext</text><text fill="#000000" font-family="sans-serif" font-size="14" lengthAdjust="spacing" textLength="37" x="13" y="463.2607">to-wl</text></g><!--class DSL::FiniteStateMachines::Transition--><g id="elem_DSL::FiniteStateMachines::Transition"><rect codeLine="16" fill="#F1F1F1" height="162.0781" id="DSL::FiniteStateMachines::Transition" rx="2.5" ry="2.5" style="stroke:#181818;stroke-width:0.5;" width="299" x="309" y="268"/><ellipse cx="324" cy="284" fill="#ADD1B2" rx="11" ry="11" style="stroke:#181818;stroke-width:1.0;"/><path d="M326.3438,279.6719 C325.4063,279.2344 324.8125,279.0938 323.9375,279.0938 C321.3125,279.0938 319.3125,281.1719 319.3125,283.8906 L319.3125,285.0156 C319.3125,287.5938 321.4219,289.4844 324.3125,289.4844 C325.5313,289.4844 326.6875,289.1875 327.4375,288.6406 C328.0156,288.2344 328.3438,287.7813 328.3438,287.3906 C328.3438,286.9375 327.9531,286.5469 327.4844,286.5469 C327.2656,286.5469 327.0625,286.625 326.875,286.8125 C326.4219,287.2969 326.4219,287.2969 326.2344,287.3906 C325.8125,287.6563 325.125,287.7813 324.3594,287.7813 C322.3125,287.7813 321.0156,286.6875 321.0156,284.9844 L321.0156,283.8906 C321.0156,282.1094 322.2656,280.7969 324,280.7969 C324.5781,280.7969 325.1875,280.9531 325.6563,281.2031 C326.1406,281.4844 326.3125,281.7031 326.4063,282.1094 C326.4688,282.5156 326.5,282.6406 326.6406,282.7656 C326.7813,282.9063 327.0156,283.0156 327.2344,283.0156 C327.5,283.0156 327.7656,282.875 327.9375,282.6563 C328.0469,282.5 328.0781,282.3125 328.0781,281.8906 L328.0781,280.4688 C328.0781,280.0313 328.0625,279.9063 327.9688,279.75 C327.8125,279.4844 327.5313,279.3438 327.2344,279.3438 C326.9375,279.3438 326.7344,279.4375 326.5156,279.75 L326.3438,279.6719 Z " fill="#000000"/><text fill="#000000" font-family="sans-serif" font-size="14" lengthAdjust="spacing" textLength="267" x="338" y="288.8467">DSL::FiniteStateMachines::Transition</text><line style="stroke:#181818;stroke-width:0.5;" x1="310" x2="607" y1="300" y2="300"/><text fill="#000000" font-family="sans-serif" font-size="14" lengthAdjust="spacing" textLength="26" x="315" y="316.9951">$!id</text><text fill="#000000" font-family="sans-serif" font-size="14" lengthAdjust="spacing" textLength="29" x="315" y="333.292">$!to</text><line style="stroke:#181818;stroke-width:0.5;" x1="310" x2="607" y1="340.5938" y2="340.5938"/><text fill="#000000" font-family="sans-serif" font-size="14" lengthAdjust="spacing" textLength="68" x="315" y="357.5889">BUILDALL</text><text fill="#000000" font-family="sans-serif" font-size="14" lengthAdjust="spacing" textLength="22" x="315" y="373.8857">Str</text><text fill="#000000" font-family="sans-serif" font-size="14" lengthAdjust="spacing" textLength="27" x="315" y="390.1826">gist</text><text fill="#000000" font-family="sans-serif" font-size="14" lengthAdjust="spacing" textLength="13" x="315" y="406.4795">id</text><text fill="#000000" font-family="sans-serif" font-size="14" lengthAdjust="spacing" textLength="16" x="315" y="422.7764">to</text></g><!--class DSL::FiniteStateMachines::DataObtainer--><g id="elem_DSL::FiniteStateMachines::DataObtainer"><rect codeLine="26" fill="#F1F1F1" height="683.5781" id="DSL::FiniteStateMachines::DataObtainer" rx="2.5" ry="2.5" style="stroke:#181818;stroke-width:0.5;" width="325" x="643" y="7"/><ellipse cx="658" cy="23" fill="#ADD1B2" rx="11" ry="11" style="stroke:#181818;stroke-width:1.0;"/><path d="M660.3438,18.6719 C659.4063,18.2344 658.8125,18.0938 657.9375,18.0938 C655.3125,18.0938 653.3125,20.1719 653.3125,22.8906 L653.3125,24.0156 C653.3125,26.5938 655.4219,28.4844 658.3125,28.4844 C659.5313,28.4844 660.6875,28.1875 661.4375,27.6406 C662.0156,27.2344 662.3438,26.7813 662.3438,26.3906 C662.3438,25.9375 661.9531,25.5469 661.4844,25.5469 C661.2656,25.5469 661.0625,25.625 660.875,25.8125 C660.4219,26.2969 660.4219,26.2969 660.2344,26.3906 C659.8125,26.6563 659.125,26.7813 658.3594,26.7813 C656.3125,26.7813 655.0156,25.6875 655.0156,23.9844 L655.0156,22.8906 C655.0156,21.1094 656.2656,19.7969 658,19.7969 C658.5781,19.7969 659.1875,19.9531 659.6563,20.2031 C660.1406,20.4844 660.3125,20.7031 660.4063,21.1094 C660.4688,21.5156 660.5,21.6406 660.6406,21.7656 C660.7813,21.9063 661.0156,22.0156 661.2344,22.0156 C661.5,22.0156 661.7656,21.875 661.9375,21.6563 C662.0469,21.5 662.0781,21.3125 662.0781,20.8906 L662.0781,19.4688 C662.0781,19.0313 662.0625,18.9063 661.9688,18.75 C661.8125,18.4844 661.5313,18.3438 661.2344,18.3438 C660.9375,18.3438 660.7344,18.4375 660.5156,18.75 L660.3438,18.6719 Z " fill="#000000"/><text fill="#000000" font-family="sans-serif" font-size="14" lengthAdjust="spacing" textLength="293" x="672" y="27.8467">DSL::FiniteStateMachines::DataObtainer</text><line style="stroke:#181818;stroke-width:0.5;" x1="644" x2="967" y1="39" y2="39"/><text fill="#000000" font-family="sans-serif" font-size="14" lengthAdjust="spacing" textLength="109" x="649" y="55.9951">$!FSMGrammar</text><text fill="#000000" font-family="sans-serif" font-size="14" lengthAdjust="spacing" textLength="108" x="649" y="72.292">$!acquiredData</text><text fill="#000000" font-family="sans-serif" font-size="14" lengthAdjust="spacing" textLength="121" x="649" y="88.5889">$!currentStateID</text><text fill="#000000" font-family="sans-serif" font-size="14" lengthAdjust="spacing" textLength="68" x="649" y="104.8857">$!dataset</text><text fill="#000000" font-family="sans-serif" font-size="14" lengthAdjust="spacing" textLength="170" x="649" y="121.1826">$!datasetColumnNames</text><text fill="#000000" font-family="sans-serif" font-size="14" lengthAdjust="spacing" textLength="94" x="649" y="137.4795">$!initDataset</text><text fill="#000000" font-family="sans-serif" font-size="14" lengthAdjust="spacing" textLength="83" x="649" y="153.7764">$!itemSpec</text><text fill="#000000" font-family="sans-serif" font-size="14" lengthAdjust="spacing" textLength="156" x="649" y="170.0732">$!itemSpecCommand</text><text fill="#000000" font-family="sans-serif" font-size="14" lengthAdjust="spacing" textLength="64" x="649" y="186.3701">%!states</text><text fill="#000000" font-family="sans-serif" font-size="14" lengthAdjust="spacing" textLength="122" x="649" y="202.667">&amp;!ECHOLOGGING</text><text fill="#000000" font-family="sans-serif" font-size="14" lengthAdjust="spacing" textLength="143" x="649" y="218.9639">&amp;!choose-transition</text><text fill="#000000" font-family="sans-serif" font-size="14" lengthAdjust="spacing" textLength="60" x="649" y="235.2607">&amp;!re-say</text><text fill="#000000" font-family="sans-serif" font-size="14" lengthAdjust="spacing" textLength="71" x="649" y="251.5576">&amp;!re-warn</text><text fill="#000000" font-family="sans-serif" font-size="14" lengthAdjust="spacing" textLength="120" x="649" y="267.8545">@!grammar-args</text><line style="stroke:#181818;stroke-width:0.5;" x1="644" x2="967" y1="275.1563" y2="275.1563"/><text fill="#000000" font-family="sans-serif" font-size="14" lengthAdjust="spacing" textLength="68" x="649" y="292.1514">BUILDALL</text><text fill="#000000" font-family="sans-serif" font-size="14" lengthAdjust="spacing" textLength="106" x="649" y="308.4482">ECHOLOGGING</text><text fill="#000000" font-family="sans-serif" font-size="14" lengthAdjust="spacing" textLength="96" x="649" y="324.7451">FSMGrammar</text><text fill="#000000" font-family="sans-serif" font-size="14" lengthAdjust="spacing" textLength="95" x="649" y="341.042">acquiredData</text><text fill="#000000" font-family="sans-serif" font-size="14" lengthAdjust="spacing" textLength="70" x="649" y="357.3389">add-state</text><text fill="#000000" font-family="sans-serif" font-size="14" lengthAdjust="spacing" textLength="102" x="649" y="373.6357">add-transition</text><text fill="#000000" font-family="sans-serif" font-size="14" lengthAdjust="spacing" textLength="241" x="649" y="389.9326">apply-query-retrieve-act-pattern</text><text fill="#000000" font-family="sans-serif" font-size="14" lengthAdjust="spacing" textLength="127" x="649" y="406.2295">choose-transition</text><text fill="#000000" font-family="sans-serif" font-size="14" lengthAdjust="spacing" textLength="108" x="649" y="422.5264">currentStateID</text><text fill="#000000" font-family="sans-serif" font-size="14" lengthAdjust="spacing" textLength="55" x="649" y="438.8232">dataset</text><text fill="#000000" font-family="sans-serif" font-size="14" lengthAdjust="spacing" textLength="157" x="649" y="455.1201">datasetColumnNames</text><text fill="#000000" font-family="sans-serif" font-size="14" lengthAdjust="spacing" textLength="101" x="649" y="471.417">grammar-args</text><text fill="#000000" font-family="sans-serif" font-size="14" lengthAdjust="spacing" textLength="85" x="649" y="487.7139">init-dataset</text><text fill="#000000" font-family="sans-serif" font-size="14" lengthAdjust="spacing" textLength="81" x="649" y="504.0107">initDataset</text><text fill="#000000" font-family="sans-serif" font-size="14" lengthAdjust="spacing" textLength="148" x="649" y="520.3076">is-metadata-dataset</text><text fill="#000000" font-family="sans-serif" font-size="14" lengthAdjust="spacing" textLength="119" x="649" y="536.6045">is-metadata-row</text><text fill="#000000" font-family="sans-serif" font-size="14" lengthAdjust="spacing" textLength="70" x="649" y="552.9014">itemSpec</text><text fill="#000000" font-family="sans-serif" font-size="14" lengthAdjust="spacing" textLength="143" x="649" y="569.1982">itemSpecCommand</text><text fill="#000000" font-family="sans-serif" font-size="14" lengthAdjust="spacing" textLength="107" x="649" y="585.4951">make-machine</text><text fill="#000000" font-family="sans-serif" font-size="14" lengthAdjust="spacing" textLength="44" x="649" y="601.792">re-say</text><text fill="#000000" font-family="sans-serif" font-size="14" lengthAdjust="spacing" textLength="55" x="649" y="618.0889">re-warn</text><text fill="#000000" font-family="sans-serif" font-size="14" lengthAdjust="spacing" textLength="23" x="649" y="634.3857">run</text><text fill="#000000" font-family="sans-serif" font-size="14" lengthAdjust="spacing" textLength="45" x="649" y="650.6826">states</text><text fill="#000000" font-family="sans-serif" font-size="14" lengthAdjust="spacing" textLength="37" x="649" y="666.9795">to-wl</text><text fill="#000000" font-family="sans-serif" font-size="14" lengthAdjust="spacing" textLength="122" x="649" y="683.2764">transition-target</text></g><!--class DSL::FiniteStateMachines--><g id="elem_DSL::FiniteStateMachines"><rect fill="#F1F1F1" height="48" id="DSL::FiniteStateMachines" rx="2.5" ry="2.5" style="stroke:#181818;stroke-width:0.5;" width="217" x="697" y="828.5"/><ellipse cx="712" cy="844.5" fill="#ADD1B2" rx="11" ry="11" style="stroke:#181818;stroke-width:1.0;"/><path d="M714.3438,840.1719 C713.4063,839.7344 712.8125,839.5938 711.9375,839.5938 C709.3125,839.5938 707.3125,841.6719 707.3125,844.3906 L707.3125,845.5156 C707.3125,848.0938 709.4219,849.9844 712.3125,849.9844 C713.5313,849.9844 714.6875,849.6875 715.4375,849.1406 C716.0156,848.7344 716.3438,848.2813 716.3438,847.8906 C716.3438,847.4375 715.9531,847.0469 715.4844,847.0469 C715.2656,847.0469 715.0625,847.125 714.875,847.3125 C714.4219,847.7969 714.4219,847.7969 714.2344,847.8906 C713.8125,848.1563 713.125,848.2813 712.3594,848.2813 C710.3125,848.2813 709.0156,847.1875 709.0156,845.4844 L709.0156,844.3906 C709.0156,842.6094 710.2656,841.2969 712,841.2969 C712.5781,841.2969 713.1875,841.4531 713.6563,841.7031 C714.1406,841.9844 714.3125,842.2031 714.4063,842.6094 C714.4688,843.0156 714.5,843.1406 714.6406,843.2656 C714.7813,843.4063 715.0156,843.5156 715.2344,843.5156 C715.5,843.5156 715.7656,843.375 715.9375,843.1563 C716.0469,843 716.0781,842.8125 716.0781,842.3906 L716.0781,840.9688 C716.0781,840.5313 716.0625,840.4063 715.9688,840.25 C715.8125,839.9844 715.5313,839.8438 715.2344,839.8438 C714.9375,839.8438 714.7344,839.9375 714.5156,840.25 L714.3438,840.1719 Z " fill="#000000"/><text fill="#000000" font-family="sans-serif" font-size="14" lengthAdjust="spacing" textLength="185" x="726" y="849.3467">DSL::FiniteStateMachines</text><line style="stroke:#181818;stroke-width:0.5;" x1="698" x2="913" y1="860.5" y2="860.5"/><line style="stroke:#181818;stroke-width:0.5;" x1="698" x2="913" y1="868.5" y2="868.5"/></g><!--class DSL::FiniteStateMachines::FSMish--><g id="elem_DSL::FiniteStateMachines::FSMish"><rect codeLine="71" fill="#F1F1F1" height="202.9375" id="DSL::FiniteStateMachines::FSMish" rx="2.5" ry="2.5" style="stroke:#181818;stroke-width:0.5;" width="276" x="1258.5" y="751"/><ellipse cx="1273.5" cy="771.1328" fill="#ADD1B2" rx="11" ry="11" style="stroke:#181818;stroke-width:1.0;"/><path d="M1275.8438,766.8047 C1274.9063,766.3672 1274.3125,766.2266 1273.4375,766.2266 C1270.8125,766.2266 1268.8125,768.3047 1268.8125,771.0234 L1268.8125,772.1484 C1268.8125,774.7266 1270.9219,776.6172 1273.8125,776.6172 C1275.0313,776.6172 1276.1875,776.3203 1276.9375,775.7734 C1277.5156,775.3672 1277.8438,774.9141 1277.8438,774.5234 C1277.8438,774.0703 1277.4531,773.6797 1276.9844,773.6797 C1276.7656,773.6797 1276.5625,773.7578 1276.375,773.9453 C1275.9219,774.4297 1275.9219,774.4297 1275.7344,774.5234 C1275.3125,774.7891 1274.625,774.9141 1273.8594,774.9141 C1271.8125,774.9141 1270.5156,773.8203 1270.5156,772.1172 L1270.5156,771.0234 C1270.5156,769.2422 1271.7656,767.9297 1273.5,767.9297 C1274.0781,767.9297 1274.6875,768.0859 1275.1563,768.3359 C1275.6406,768.6172 1275.8125,768.8359 1275.9063,769.2422 C1275.9688,769.6484 1276,769.7734 1276.1406,769.8984 C1276.2813,770.0391 1276.5156,770.1484 1276.7344,770.1484 C1277,770.1484 1277.2656,770.0078 1277.4375,769.7891 C1277.5469,769.6328 1277.5781,769.4453 1277.5781,769.0234 L1277.5781,767.6016 C1277.5781,767.1641 1277.5625,767.0391 1277.4688,766.8828 C1277.3125,766.6172 1277.0313,766.4766 1276.7344,766.4766 C1276.4375,766.4766 1276.2344,766.5703 1276.0156,766.8828 L1275.8438,766.8047 Z " fill="#000000"/><text fill="#000000" font-family="sans-serif" font-size="12" font-style="italic" lengthAdjust="spacing" textLength="36" x="1391.5" y="767.1387">&#171;role&#187;</text><text fill="#000000" font-family="sans-serif" font-size="14" lengthAdjust="spacing" textLength="244" x="1287.5" y="782.9639">DSL::FiniteStateMachines::FSMish</text><line style="stroke:#181818;stroke-width:0.5;" x1="1259.5" x2="1533.5" y1="791.2656" y2="791.2656"/><text fill="#000000" font-family="sans-serif" font-size="14" lengthAdjust="spacing" textLength="121" x="1264.5" y="808.2607">$!currentStateID</text><text fill="#000000" font-family="sans-serif" font-size="14" lengthAdjust="spacing" textLength="64" x="1264.5" y="824.5576">%!states</text><text fill="#000000" font-family="sans-serif" font-size="14" lengthAdjust="spacing" textLength="122" x="1264.5" y="840.8545">&amp;!ECHOLOGGING</text><text fill="#000000" font-family="sans-serif" font-size="14" lengthAdjust="spacing" textLength="143" x="1264.5" y="857.1514">&amp;!choose-transition</text><text fill="#000000" font-family="sans-serif" font-size="14" lengthAdjust="spacing" textLength="60" x="1264.5" y="873.4482">&amp;!re-say</text><text fill="#000000" font-family="sans-serif" font-size="14" lengthAdjust="spacing" textLength="71" x="1264.5" y="889.7451">&amp;!re-warn</text><line style="stroke:#181818;stroke-width:0.5;" x1="1259.5" x2="1533.5" y1="897.0469" y2="897.0469"/><text fill="#000000" font-family="sans-serif" font-size="14" lengthAdjust="spacing" textLength="70" x="1264.5" y="914.042">add-state</text><text fill="#000000" font-family="sans-serif" font-size="14" lengthAdjust="spacing" textLength="23" x="1264.5" y="930.3389">run</text><text fill="#000000" font-family="sans-serif" font-size="14" lengthAdjust="spacing" textLength="37" x="1264.5" y="946.6357">to-wl</text></g><!--class DSL::FiniteStateMachines::AddressBookCaller--><g id="elem_DSL::FiniteStateMachines::AddressBookCaller"><rect codeLine="84" fill="#F1F1F1" height="683.5781" id="DSL::FiniteStateMachines::AddressBookCaller" rx="2.5" ry="2.5" style="stroke:#181818;stroke-width:0.5;" width="362" x="1003.5" y="7"/><ellipse cx="1018.5" cy="23" fill="#ADD1B2" rx="11" ry="11" style="stroke:#181818;stroke-width:1.0;"/><path d="M1020.8438,18.6719 C1019.9063,18.2344 1019.3125,18.0938 1018.4375,18.0938 C1015.8125,18.0938 1013.8125,20.1719 1013.8125,22.8906 L1013.8125,24.0156 C1013.8125,26.5938 1015.9219,28.4844 1018.8125,28.4844 C1020.0313,28.4844 1021.1875,28.1875 1021.9375,27.6406 C1022.5156,27.2344 1022.8438,26.7813 1022.8438,26.3906 C1022.8438,25.9375 1022.4531,25.5469 1021.9844,25.5469 C1021.7656,25.5469 1021.5625,25.625 1021.375,25.8125 C1020.9219,26.2969 1020.9219,26.2969 1020.7344,26.3906 C1020.3125,26.6563 1019.625,26.7813 1018.8594,26.7813 C1016.8125,26.7813 1015.5156,25.6875 1015.5156,23.9844 L1015.5156,22.8906 C1015.5156,21.1094 1016.7656,19.7969 1018.5,19.7969 C1019.0781,19.7969 1019.6875,19.9531 1020.1563,20.2031 C1020.6406,20.4844 1020.8125,20.7031 1020.9063,21.1094 C1020.9688,21.5156 1021,21.6406 1021.1406,21.7656 C1021.2813,21.9063 1021.5156,22.0156 1021.7344,22.0156 C1022,22.0156 1022.2656,21.875 1022.4375,21.6563 C1022.5469,21.5 1022.5781,21.3125 1022.5781,20.8906 L1022.5781,19.4688 C1022.5781,19.0313 1022.5625,18.9063 1022.4688,18.75 C1022.3125,18.4844 1022.0313,18.3438 1021.7344,18.3438 C1021.4375,18.3438 1021.2344,18.4375 1021.0156,18.75 L1020.8438,18.6719 Z " fill="#000000"/><text fill="#000000" font-family="sans-serif" font-size="14" lengthAdjust="spacing" textLength="330" x="1032.5" y="27.8467">DSL::FiniteStateMachines::AddressBookCaller</text><line style="stroke:#181818;stroke-width:0.5;" x1="1004.5" x2="1364.5" y1="39" y2="39"/><text fill="#000000" font-family="sans-serif" font-size="14" lengthAdjust="spacing" textLength="109" x="1009.5" y="55.9951">$!FSMGrammar</text><text fill="#000000" font-family="sans-serif" font-size="14" lengthAdjust="spacing" textLength="108" x="1009.5" y="72.292">$!acquiredData</text><text fill="#000000" font-family="sans-serif" font-size="14" lengthAdjust="spacing" textLength="121" x="1009.5" y="88.5889">$!currentStateID</text><text fill="#000000" font-family="sans-serif" font-size="14" lengthAdjust="spacing" textLength="68" x="1009.5" y="104.8857">$!dataset</text><text fill="#000000" font-family="sans-serif" font-size="14" lengthAdjust="spacing" textLength="170" x="1009.5" y="121.1826">$!datasetColumnNames</text><text fill="#000000" font-family="sans-serif" font-size="14" lengthAdjust="spacing" textLength="94" x="1009.5" y="137.4795">$!initDataset</text><text fill="#000000" font-family="sans-serif" font-size="14" lengthAdjust="spacing" textLength="83" x="1009.5" y="153.7764">$!itemSpec</text><text fill="#000000" font-family="sans-serif" font-size="14" lengthAdjust="spacing" textLength="156" x="1009.5" y="170.0732">$!itemSpecCommand</text><text fill="#000000" font-family="sans-serif" font-size="14" lengthAdjust="spacing" textLength="64" x="1009.5" y="186.3701">%!states</text><text fill="#000000" font-family="sans-serif" font-size="14" lengthAdjust="spacing" textLength="122" x="1009.5" y="202.667">&amp;!ECHOLOGGING</text><text fill="#000000" font-family="sans-serif" font-size="14" lengthAdjust="spacing" textLength="143" x="1009.5" y="218.9639">&amp;!choose-transition</text><text fill="#000000" font-family="sans-serif" font-size="14" lengthAdjust="spacing" textLength="60" x="1009.5" y="235.2607">&amp;!re-say</text><text fill="#000000" font-family="sans-serif" font-size="14" lengthAdjust="spacing" textLength="71" x="1009.5" y="251.5576">&amp;!re-warn</text><text fill="#000000" font-family="sans-serif" font-size="14" lengthAdjust="spacing" textLength="120" x="1009.5" y="267.8545">@!grammar-args</text><line style="stroke:#181818;stroke-width:0.5;" x1="1004.5" x2="1364.5" y1="275.1563" y2="275.1563"/><text fill="#000000" font-family="sans-serif" font-size="14" lengthAdjust="spacing" textLength="68" x="1009.5" y="292.1514">BUILDALL</text><text fill="#000000" font-family="sans-serif" font-size="14" lengthAdjust="spacing" textLength="106" x="1009.5" y="308.4482">ECHOLOGGING</text><text fill="#000000" font-family="sans-serif" font-size="14" lengthAdjust="spacing" textLength="96" x="1009.5" y="324.7451">FSMGrammar</text><text fill="#000000" font-family="sans-serif" font-size="14" lengthAdjust="spacing" textLength="95" x="1009.5" y="341.042">acquiredData</text><text fill="#000000" font-family="sans-serif" font-size="14" lengthAdjust="spacing" textLength="70" x="1009.5" y="357.3389">add-state</text><text fill="#000000" font-family="sans-serif" font-size="14" lengthAdjust="spacing" textLength="102" x="1009.5" y="373.6357">add-transition</text><text fill="#000000" font-family="sans-serif" font-size="14" lengthAdjust="spacing" textLength="241" x="1009.5" y="389.9326">apply-query-retrieve-act-pattern</text><text fill="#000000" font-family="sans-serif" font-size="14" lengthAdjust="spacing" textLength="127" x="1009.5" y="406.2295">choose-transition</text><text fill="#000000" font-family="sans-serif" font-size="14" lengthAdjust="spacing" textLength="108" x="1009.5" y="422.5264">currentStateID</text><text fill="#000000" font-family="sans-serif" font-size="14" lengthAdjust="spacing" textLength="55" x="1009.5" y="438.8232">dataset</text><text fill="#000000" font-family="sans-serif" font-size="14" lengthAdjust="spacing" textLength="157" x="1009.5" y="455.1201">datasetColumnNames</text><text fill="#000000" font-family="sans-serif" font-size="14" lengthAdjust="spacing" textLength="101" x="1009.5" y="471.417">grammar-args</text><text fill="#000000" font-family="sans-serif" font-size="14" lengthAdjust="spacing" textLength="85" x="1009.5" y="487.7139">init-dataset</text><text fill="#000000" font-family="sans-serif" font-size="14" lengthAdjust="spacing" textLength="81" x="1009.5" y="504.0107">initDataset</text><text fill="#000000" font-family="sans-serif" font-size="14" lengthAdjust="spacing" textLength="148" x="1009.5" y="520.3076">is-metadata-dataset</text><text fill="#000000" font-family="sans-serif" font-size="14" lengthAdjust="spacing" textLength="119" x="1009.5" y="536.6045">is-metadata-row</text><text fill="#000000" font-family="sans-serif" font-size="14" lengthAdjust="spacing" textLength="70" x="1009.5" y="552.9014">itemSpec</text><text fill="#000000" font-family="sans-serif" font-size="14" lengthAdjust="spacing" textLength="143" x="1009.5" y="569.1982">itemSpecCommand</text><text fill="#000000" font-family="sans-serif" font-size="14" lengthAdjust="spacing" textLength="107" x="1009.5" y="585.4951">make-machine</text><text fill="#000000" font-family="sans-serif" font-size="14" lengthAdjust="spacing" textLength="44" x="1009.5" y="601.792">re-say</text><text fill="#000000" font-family="sans-serif" font-size="14" lengthAdjust="spacing" textLength="55" x="1009.5" y="618.0889">re-warn</text><text fill="#000000" font-family="sans-serif" font-size="14" lengthAdjust="spacing" textLength="23" x="1009.5" y="634.3857">run</text><text fill="#000000" font-family="sans-serif" font-size="14" lengthAdjust="spacing" textLength="45" x="1009.5" y="650.6826">states</text><text fill="#000000" font-family="sans-serif" font-size="14" lengthAdjust="spacing" textLength="37" x="1009.5" y="666.9795">to-wl</text><text fill="#000000" font-family="sans-serif" font-size="14" lengthAdjust="spacing" textLength="122" x="1009.5" y="683.2764">transition-target</text></g><!--class DSL::FiniteStateMachines::QueryRetrieveActFSMRole--><g id="elem_DSL::FiniteStateMachines::QueryRetrieveActFSMRole"><rect codeLine="129" fill="#F1F1F1" height="251.8281" id="DSL::FiniteStateMachines::QueryRetrieveActFSMRole" rx="2.5" ry="2.5" style="stroke:#181818;stroke-width:0.5;" width="417" x="1401" y="223"/><ellipse cx="1416" cy="243.1328" fill="#ADD1B2" rx="11" ry="11" style="stroke:#181818;stroke-width:1.0;"/><path d="M1418.3438,238.8047 C1417.4063,238.3672 1416.8125,238.2266 1415.9375,238.2266 C1413.3125,238.2266 1411.3125,240.3047 1411.3125,243.0234 L1411.3125,244.1484 C1411.3125,246.7266 1413.4219,248.6172 1416.3125,248.6172 C1417.5313,248.6172 1418.6875,248.3203 1419.4375,247.7734 C1420.0156,247.3672 1420.3438,246.9141 1420.3438,246.5234 C1420.3438,246.0703 1419.9531,245.6797 1419.4844,245.6797 C1419.2656,245.6797 1419.0625,245.7578 1418.875,245.9453 C1418.4219,246.4297 1418.4219,246.4297 1418.2344,246.5234 C1417.8125,246.7891 1417.125,246.9141 1416.3594,246.9141 C1414.3125,246.9141 1413.0156,245.8203 1413.0156,244.1172 L1413.0156,243.0234 C1413.0156,241.2422 1414.2656,239.9297 1416,239.9297 C1416.5781,239.9297 1417.1875,240.0859 1417.6563,240.3359 C1418.1406,240.6172 1418.3125,240.8359 1418.4063,241.2422 C1418.4688,241.6484 1418.5,241.7734 1418.6406,241.8984 C1418.7813,242.0391 1419.0156,242.1484 1419.2344,242.1484 C1419.5,242.1484 1419.7656,242.0078 1419.9375,241.7891 C1420.0469,241.6328 1420.0781,241.4453 1420.0781,241.0234 L1420.0781,239.6016 C1420.0781,239.1641 1420.0625,239.0391 1419.9688,238.8828 C1419.8125,238.6172 1419.5313,238.4766 1419.2344,238.4766 C1418.9375,238.4766 1418.7344,238.5703 1418.5156,238.8828 L1418.3438,238.8047 Z " fill="#000000"/><text fill="#000000" font-family="sans-serif" font-size="12" font-style="italic" lengthAdjust="spacing" textLength="36" x="1604.5" y="239.1387">&#171;role&#187;</text><text fill="#000000" font-family="sans-serif" font-size="14" lengthAdjust="spacing" textLength="385" x="1430" y="254.9639">DSL::FiniteStateMachines::QueryRetrieveActFSMRole</text><line style="stroke:#181818;stroke-width:0.5;" x1="1402" x2="1817" y1="263.2656" y2="263.2656"/><text fill="#000000" font-family="sans-serif" font-size="14" lengthAdjust="spacing" textLength="109" x="1407" y="280.2607">$!FSMGrammar</text><text fill="#000000" font-family="sans-serif" font-size="14" lengthAdjust="spacing" textLength="108" x="1407" y="296.5576">$!acquiredData</text><text fill="#000000" font-family="sans-serif" font-size="14" lengthAdjust="spacing" textLength="68" x="1407" y="312.8545">$!dataset</text><text fill="#000000" font-family="sans-serif" font-size="14" lengthAdjust="spacing" textLength="170" x="1407" y="329.1514">$!datasetColumnNames</text><text fill="#000000" font-family="sans-serif" font-size="14" lengthAdjust="spacing" textLength="94" x="1407" y="345.4482">$!initDataset</text><text fill="#000000" font-family="sans-serif" font-size="14" lengthAdjust="spacing" textLength="83" x="1407" y="361.7451">$!itemSpec</text><text fill="#000000" font-family="sans-serif" font-size="14" lengthAdjust="spacing" textLength="156" x="1407" y="378.042">$!itemSpecCommand</text><text fill="#000000" font-family="sans-serif" font-size="14" lengthAdjust="spacing" textLength="120" x="1407" y="394.3389">@!grammar-args</text><line style="stroke:#181818;stroke-width:0.5;" x1="1402" x2="1817" y1="401.6406" y2="401.6406"/><text fill="#000000" font-family="sans-serif" font-size="14" lengthAdjust="spacing" textLength="241" x="1407" y="418.6357">apply-query-retrieve-act-pattern</text><text fill="#000000" font-family="sans-serif" font-size="14" lengthAdjust="spacing" textLength="85" x="1407" y="434.9326">init-dataset</text><text fill="#000000" font-family="sans-serif" font-size="14" lengthAdjust="spacing" textLength="148" x="1407" y="451.2295">is-metadata-dataset</text><text fill="#000000" font-family="sans-serif" font-size="14" lengthAdjust="spacing" textLength="119" x="1407" y="467.5264">is-metadata-row</text></g><!--link DSL::FiniteStateMachines::DataObtainer to DSL::FiniteStateMachines--><g id="link_DSL::FiniteStateMachines::DataObtainer_DSL::FiniteStateMachines"><path codeLine="67" d="M793.516,691.098 C794.298,735.324 795.678,775.221 797.658,804.162 " fill="none" id="DSL::FiniteStateMachines::DataObtainer-to-DSL::FiniteStateMachines" style="stroke:#181818;stroke-width:1.0;"/><polygon fill="none" points="804.665,803.965,799.33,824.472,790.712,805.114,804.665,803.965" style="stroke:#181818;stroke-width:1.0;"/></g><!--link DSL::FiniteStateMachines::DataObtainer to DSL::FiniteStateMachines--><g id="link_DSL::FiniteStateMachines::DataObtainer_DSL::FiniteStateMachines"><path codeLine="68" d="M818.189,691.098 C817.361,735.324 815.899,775.221 813.804,804.162 " fill="none" id="DSL::FiniteStateMachines::DataObtainer-to-DSL::FiniteStateMachines-1" style="stroke:#181818;stroke-width:1.0;"/><polygon fill="none" points="820.744,805.156,812.033,824.472,806.797,803.94,820.744,805.156" style="stroke:#181818;stroke-width:1.0;"/></g><!--link DSL::FiniteStateMachines::AddressBookCaller to DSL::FiniteStateMachines::FSMish--><g id="link_DSL::FiniteStateMachines::AddressBookCaller_DSL::FiniteStateMachines::FSMish"><path codeLine="125" d="M1328.69,691.098 C1334.71,705.34 1340.54,719.133 1346.09,732.255 " fill="none" id="DSL::FiniteStateMachines::AddressBookCaller-to-DSL::FiniteStateMachines::FSMish" style="stroke:#181818;stroke-width:1.0;"/><polygon fill="none" points="1352.67,729.829,1354.01,750.976,1339.77,735.28,1352.67,729.829" style="stroke:#181818;stroke-width:1.0;"/></g><!--link DSL::FiniteStateMachines::AddressBookCaller to DSL::FiniteStateMachines--><g id="link_DSL::FiniteStateMachines::AddressBookCaller_DSL::FiniteStateMachines"><path codeLine="126" d="M1003.188,668.554 C997.365,676.207 991.466,683.704 985.5,691 C947.784,737.125 896.378,781.566 858.157,811.941 " fill="none" id="DSL::FiniteStateMachines::AddressBookCaller-to-DSL::FiniteStateMachines" style="stroke:#181818;stroke-width:1.0;"/><polygon fill="none" points="862.469,817.456,842.402,824.262,853.844,806.427,862.469,817.456" style="stroke:#181818;stroke-width:1.0;"/></g><!--link DSL::FiniteStateMachines::QueryRetrieveActFSMRole to DSL::FiniteStateMachines::FSMish--><g id="link_DSL::FiniteStateMachines::QueryRetrieveActFSMRole_DSL::FiniteStateMachines::FSMish"><path codeLine="143" d="M1556.3,475.256 C1522.89,553.92 1480.05,654.785 1447.14,732.275 " fill="none" id="DSL::FiniteStateMachines::QueryRetrieveActFSMRole-to-DSL::FiniteStateMachines::FSMish" style="stroke:#181818;stroke-width:1.0;"/><polygon fill="none" points="1453.47,735.269,1439.21,750.941,1440.59,729.796,1453.47,735.269" style="stroke:#181818;stroke-width:1.0;"/></g><!--SRC=[xLNRZjem47tFLmIfxPj_0ArGMTAbI5bGD-q7kCuKh8tZh3qfYrh-lGuqmVOcXBHLArKy835dFCDSpXnOHhKEeoGUZ-zupX4If0Ztb6ru3deyFfXX-2qmdoySidGVlXhnr3L5aN76SGdFQ3dUZ2X3BdCBUZk2P_Uj0Dn8uxdzj8YZQHpRM8BADa_PQgGhsPfhnpxMsrYYFGebsMR1FWXOpqm-AffhNXNJCnYK0riyNxX9Tq5r4KMw-epKMCglxowvdoig15KEJDbJoHMaLQZZOALIaEFX5nQHuqhDMmtOXiraLefyIGLeTpgcsgWbpFGWaW9OApYJfjpSdklhaQxgqGxLtitUh-BLVBvOpXsSRQJKGB1PcUDLG3JT-T2MAfUqw-FC25LhtRTHhv0QTYT_ehGx-0PFKt9eqWVTFXfFKMGxybI2sX45g3Xy1MBEXHGK4PJpjdKWZVF5lckFjMuFyhRTKBbZPXK9I4isZnmDh8dvIgk0rYZBhUJMSLciyZ6BLBLBq4SWudX5DdwYY8NK36cWqZ5F_7IrnGQQ-HCq8p9TxOCBRvgGxvCpzs-OnlNc3oNxK77guIUbfWnDyWUPGT0lGySomfiRPTvF9fuGTGhBNplkiwVcxRFvP-ZjUfgc2hI-bV9nHhFigi1N1RugyF-Wm2yF-tTbU736NzVYZiWkSHwgKVzEYBg5OSX1TXx4CEQVeq_N1YuYqGy0]--></g></svg>